<svg width="287" height="189" viewBox="0 0 287 189" fill="none" xmlns="http://www.w3.org/2000/svg">
<mask id="mask0_18188_218077" style="mask-type:alpha" maskUnits="userSpaceOnUse" x="0" y="0" width="287" height="189">
<path d="M268.166 0H18.8344C8.43244 0 0 8.88491 0 19.845V169.155C0 180.115 8.43244 189 18.8344 189H268.166C278.568 189 287 180.115 287 169.155V19.845C287 8.88491 278.568 0 268.166 0Z" fill="white"/>
</mask>
<g mask="url(#mask0_18188_218077)">
<path d="M268.166 0H18.8344C8.43244 0 0 8.88491 0 19.845V169.155C0 180.115 8.43244 189 18.8344 189H268.166C278.568 189 287 180.115 287 169.155V19.845C287 8.88491 278.568 0 268.166 0Z" fill="url(#paint0_linear_18188_218077)"/>
<path style="mix-blend-mode:soft-light" opacity="0.5" fill-rule="evenodd" clip-rule="evenodd" d="M-10.0547 196.914C16.6687 113.957 51.6247 58.5848 94.8133 30.7961C138.002 3.00728 201.858 -8.36595 286.381 -3.32361V196.914H-10.0547Z" fill="url(#paint1_linear_18188_218077)"/>
<path style="mix-blend-mode:soft-light" opacity="0.5" fill-rule="evenodd" clip-rule="evenodd" d="M55.6055 196.676C82.3289 113.719 117.285 58.3466 160.473 30.5578C203.662 2.76903 267.518 -8.60419 352.041 -3.56186V196.676H55.6055Z" fill="url(#paint2_linear_18188_218077)"/>
<path style="mix-blend-mode:multiply" opacity="0.5" fill-rule="evenodd" clip-rule="evenodd" d="M-4.33008 196.676C-2.2377 142.525 40.381 125.061 123.526 144.283C206.671 163.505 263.201 108.981 293.116 -19.2899L300.657 196.676H-4.33008Z" fill="url(#paint3_linear_18188_218077)"/>
</g>
<defs>
<linearGradient id="paint0_linear_18188_218077" x1="287" y1="189" x2="157.284" y2="-54.5439" gradientUnits="userSpaceOnUse">
<stop stop-color="#01ADEF"/>
<stop offset="1" stop-color="#0860BF"/>
</linearGradient>
<linearGradient id="paint1_linear_18188_218077" x1="294.339" y1="54.9048" x2="134.773" y2="248.613" gradientUnits="userSpaceOnUse">
<stop stop-color="#EEEEEE"/>
<stop offset="1" stop-color="#D8D8D8" stop-opacity="0"/>
</linearGradient>
<linearGradient id="paint2_linear_18188_218077" x1="360" y1="54.6665" x2="200.433" y2="248.374" gradientUnits="userSpaceOnUse">
<stop stop-color="#EEEEEE"/>
<stop offset="1" stop-color="#D8D8D8" stop-opacity="0"/>
</linearGradient>
<linearGradient id="paint3_linear_18188_218077" x1="308.844" y1="44.3955" x2="136.518" y2="245.11" gradientUnits="userSpaceOnUse">
<stop stop-color="#EEEEEE"/>
<stop offset="1" stop-color="#D8D8D8" stop-opacity="0"/>
</linearGradient>
</defs>
</svg>
