<svg width="21" height="19" viewBox="0 0 21 19" fill="none" xmlns="http://www.w3.org/2000/svg">
<path d="M18.4961 4H15.4961V2C15.4961 0.89 14.6061 0 13.4961 0H7.49609C6.38609 0 5.49609 0.89 5.49609 2V4H2.49609C1.38609 4 0.496094 4.89 0.496094 6V17C0.496094 18.11 1.38609 19 2.49609 19H18.4961C19.6061 19 20.4961 18.11 20.4961 17V6C20.4961 4.89 19.6061 4 18.4961 4ZM7.49609 2H13.4961V4H7.49609V2ZM18.4961 17H2.49609V15H18.4961V17ZM18.4961 12H2.49609V6H5.49609V8H7.49609V6H13.4961V8H15.4961V6H18.4961V12Z" fill="black" fill-opacity="0.54"/>
</svg>
