<svg width="16" height="20" viewBox="0 0 16 20" fill="none" xmlns="http://www.w3.org/2000/svg">
<path d="M8 4C9.10457 4 10 3.10457 10 2C10 0.89543 9.10457 0 8 0C6.89543 0 6 0.89543 6 2C6 3.10457 6.89543 4 8 4Z" fill="black" fill-opacity="0.6"/>
<path d="M11.891 6.11C11.501 5.72 10.831 5 9.53096 5C9.32096 5 8.11096 5 6.99096 5C4.53096 4.99 2.48096 3.2 2.07096 0.85C1.99096 0.36 1.58096 0 1.09096 0C0.480963 0 0.000963062 0.54 0.0909631 1.14C0.530963 3.8 2.47096 5.95 5.00096 6.71V19C5.00096 19.55 5.45096 20 6.00096 20C6.55096 20 7.00096 19.55 7.00096 19V14H9.00096V19C9.00096 19.55 9.45096 20 10.001 20C10.551 20 11.001 19.55 11.001 19V8.05L14.241 11.29C14.631 11.68 15.261 11.68 15.651 11.29C16.041 10.9 16.041 10.27 15.651 9.88L11.891 6.11Z" fill="black" fill-opacity="0.6"/>
</svg>
