<svg width="160" height="160" viewBox="0 0 160 160" fill="none" xmlns="http://www.w3.org/2000/svg">
<circle cx="80" cy="80" r="80" fill="#1E88E5"/>
<path d="M65.7812 86.1953H57.7656V100H53.2422V65.875H64.5391C68.3828 65.875 71.3359 66.75 73.3984 68.5C75.4766 70.25 76.5156 72.7969 76.5156 76.1406C76.5156 78.2656 75.9375 80.1172 74.7812 81.6953C73.6406 83.2734 72.0469 84.4531 70 85.2344L78.0156 99.7188V100H73.1875L65.7812 86.1953ZM57.7656 82.5156H64.6797C66.9141 82.5156 68.6875 81.9375 70 80.7812C71.3281 79.625 71.9922 78.0781 71.9922 76.1406C71.9922 74.0312 71.3594 72.4141 70.0938 71.2891C68.8438 70.1641 67.0312 69.5938 64.6562 69.5781H57.7656V82.5156ZM101.938 91.0938H87.6406L84.4297 100H79.7891L92.8203 65.875H96.7578L109.812 100H105.195L101.938 91.0938ZM89 87.3906H100.602L94.7891 71.4297L89 87.3906Z" fill="white"/>
</svg>
