<svg width="545" height="109" viewBox="0 0 545 109" fill="none" xmlns="http://www.w3.org/2000/svg">
<path d="M33.59 18.9805H45.7L71.29 79.1205H57.56L52.1 65.7205H26.85L21.39 79.1105H8L33.59 18.9805ZM47.41 54.1205L39.48 34.7605L31.55 54.1205H47.41Z" fill="#004F93"/>
<path d="M76.25 19.4102H100.65C114.89 19.4102 123.51 27.8602 123.51 40.0502V40.2202C123.51 54.0402 112.76 61.2002 99.37 61.2002H89.39V79.1202H76.25V19.4102V19.4102ZM99.8 49.5202C106.37 49.5202 110.21 45.6002 110.21 40.4802V40.3002C110.21 34.4102 106.12 31.2602 99.55 31.2602H89.4V49.5102H99.8V49.5202Z" fill="#004F93"/>
<path d="M143.481 18.9805H155.591L181.181 79.1205H167.451L161.991 65.7305H136.741L131.281 79.1205H117.891L143.481 18.9805ZM157.301 54.1205L149.371 34.7605L141.441 54.1205H157.301Z" fill="#004F93"/>
<path d="M186.141 19.4102H210.541C224.781 19.4102 233.401 27.8602 233.401 40.0502V40.2202C233.401 54.0402 222.651 61.2002 209.261 61.2002H199.281V79.1202H186.141V19.4102V19.4102ZM209.691 49.5202C216.261 49.5202 220.101 45.6002 220.101 40.4802V40.3002C220.101 34.4102 216.011 31.2602 209.441 31.2602H199.291V49.5102H209.691V49.5202Z" fill="#004F93"/>
<path d="M236.32 57.1903V57.0203C236.32 44.3103 245.28 34.0703 257.47 34.0703C270.52 34.0703 278.03 44.4803 278.03 57.3603C278.03 58.2103 278.03 58.7303 277.95 59.4903H242.98C243.92 69.0403 250.66 74.4203 258.5 74.4203C264.56 74.4203 268.82 71.9503 272.4 68.1903L276.49 71.8603C272.06 76.8103 266.68 80.1303 258.32 80.1303C246.21 80.1403 236.32 70.8403 236.32 57.1903ZM271.37 54.6403C270.69 46.6203 266.08 39.6203 257.3 39.6203C249.62 39.6203 243.82 46.0203 242.97 54.6403H271.37Z" fill="#0095DA"/>
<path d="M285.289 35.0198H291.859V42.6998C294.759 37.9198 299.369 34.0898 306.959 34.0898C317.619 34.0898 323.849 41.2498 323.849 51.7498V79.1298H317.279V53.3498C317.279 45.1598 312.849 40.0398 305.079 40.0398C297.489 40.0398 291.859 45.5898 291.859 53.8598V79.1098H285.289V35.0198Z" fill="#0095DA"/>
<path d="M334.18 16.8496H340.75V79.1196H334.18V16.8496Z" fill="#0095DA"/>
<path d="M352.35 35.02H358.92V79.12H352.35V35.02ZM361.05 16L367.87 19.15L358.15 28.36H353.03L361.05 16Z" fill="#0095DA"/>
<path d="M369.93 35.0198H376.5V42.6998C379.4 37.9198 384.01 34.0898 391.6 34.0898C402.26 34.0898 408.49 41.2498 408.49 51.7498V79.1298H401.92V53.3498C401.92 45.1598 397.49 40.0398 389.72 40.0398C382.13 40.0398 376.5 45.5898 376.5 53.8598V79.1098H369.93V35.0198Z" fill="#0095DA"/>
<path d="M415.49 57.1903V57.0203C415.49 44.3103 424.45 34.0703 436.64 34.0703C449.69 34.0703 457.2 44.4803 457.2 57.3603C457.2 58.2103 457.2 58.7303 457.12 59.4903H422.15C423.09 69.0403 429.83 74.4203 437.67 74.4203C443.73 74.4203 447.99 71.9503 451.57 68.1903L455.66 71.8603C451.23 76.8103 445.85 80.1303 437.49 80.1303C425.39 80.1403 415.49 70.8403 415.49 57.1903ZM450.55 54.6403C449.87 46.6203 445.26 39.6203 436.48 39.6203C428.8 39.6203 423 46.0203 422.15 54.6403H450.55Z" fill="#0095DA"/>
<path d="M461.65 55.7409C461.65 35.3509 478.11 18.3809 499.01 18.3809C519.91 18.3809 536.2 34.3309 536.2 52.1609C536.2 66.6609 528.1 73.0609 520.25 73.0609C514.02 73.0609 509.93 70.1609 508.31 65.9009C504.98 69.8309 500.63 73.0609 494.24 73.0609C485.88 73.0609 478.97 66.9209 478.97 57.5409C478.97 45.4309 489.03 36.3009 498.67 36.3009C505.32 36.3009 509.08 39.8009 511.12 43.3809L512.23 37.4909L517.94 38.2609L514.53 57.6209C514.1 60.0109 513.93 61.8909 513.93 62.8209C513.93 67.1709 516.57 69.7309 521.18 69.7309C527.23 69.7309 533.12 64.2709 533.12 52.1609C533.12 36.4709 518.54 21.2809 499 21.2809C479.38 21.2809 464.71 36.8109 464.71 55.7409C464.71 74.7609 479.21 90.0309 499.68 90.0309C508.21 90.0309 514.35 88.0709 520.92 84.2309L522.28 86.5309C515.71 90.5409 508.55 92.9309 499.68 92.9309C477.86 92.9309 461.65 76.1309 461.65 55.7409ZM504.73 63.6809C507.63 60.7809 509.51 56.6809 509.51 52.4209C509.51 46.1909 505.08 41.5909 499.11 41.5909C495.7 41.5909 492.37 43.1209 489.73 45.7709C487 48.5909 485.13 52.5909 485.13 57.1209C485.13 63.8609 489.48 67.7809 495.53 67.7809C498.93 67.7709 502.25 66.1509 504.73 63.6809Z" fill="#0095DA"/>
</svg>
