<svg width="160" height="160" viewBox="0 0 160 160" fill="none" xmlns="http://www.w3.org/2000/svg">
<circle cx="80" cy="80" r="80" fill="#1E88E5"/>
<path d="M59.7344 96.3203H75.9062V100H55.2109V65.875H59.7344V96.3203ZM104.938 95.5234C103.781 97.1797 102.164 98.4219 100.086 99.25C98.0234 100.062 95.6172 100.469 92.8672 100.469C90.0859 100.469 87.6172 99.8203 85.4609 98.5234C83.3047 97.2109 81.6328 95.3516 80.4453 92.9453C79.2734 90.5391 78.6719 87.75 78.6406 84.5781V81.6016C78.6406 76.4609 79.8359 72.4766 82.2266 69.6484C84.6328 66.8203 88.0078 65.4062 92.3516 65.4062C95.9141 65.4062 98.7812 66.3203 100.953 68.1484C103.125 69.9609 104.453 72.5391 104.938 75.8828H100.438C99.5938 71.3672 96.9062 69.1094 92.375 69.1094C89.3594 69.1094 87.0703 70.1719 85.5078 72.2969C83.9609 74.4062 83.1797 77.4688 83.1641 81.4844V84.2734C83.1641 88.1016 84.0391 91.1484 85.7891 93.4141C87.5391 95.6641 89.9062 96.7891 92.8906 96.7891C94.5781 96.7891 96.0547 96.6016 97.3203 96.2266C98.5859 95.8516 99.6328 95.2188 100.461 94.3281V86.6641H92.5625V83.0078H104.938V95.5234Z" fill="white"/>
</svg>
